{
  "accessors": [
    {
      "bufferView": 2,
      "componentType": 5126,
      "count": 1640,
      "max": [
        2.2555596828460693,
        15.620094299316406,
        1.604200839996338
      ],
      "min": [
        -1.6990474462509155,
        0.26227235794067383,
        -1.604200839996338
      ],
      "type": "VEC3"
    },
    {
      "bufferView": 2,
      "byteOffset": 19680,
      "componentType": 5126,
      "count": 1640,
      "max": [
        1.0,
        1.0,
        1.0
      ],
      "min": [
        -1.0,
        -1.0,
        -1.0
      ],
      "type": "VEC3"
    },
    {
      "bufferView": 1,
      "componentType": 5126,
      "count": 1640,
      "max": [
        0.9926827549934387,
        0.8943707346916199
      ],
      "min": [
        0.016010945662856102,
        0.013832811266183853
      ],
      "type": "VEC2"
    },
    {
      "bufferView": 1,
      "byteOffset": 13120,
      "componentType": 5126,
      "count": 1640,
      "max": [
        0.9926827549934387,
        0.8943707346916199
      ],
      "min": [
        0.016010945662856102,
        0.013832811266183853
      ],
      "type": "VEC2"
    },
    {
      "bufferView": 0,
      "componentType": 5125,
      "count": 5217,
      "type": "SCALAR"
    },
    {
      "bufferView": 2,
      "byteOffset": 39360,
      "componentType": 5126,
      "count": 126,
      "max": [
        0.32613784074783325,
        8.726150512695313,
        1.070143699645996
      ],
      "min": [
        -1.3405117988586426,
        1.2936832904815674,
        -0.5965060591697693
      ],
      "type": "VEC3"
    },
    {
      "bufferView": 2,
      "byteOffset": 40872,
      "componentType": 5126,
      "count": 126,
      "max": [
        1.0,
        4.7221396926033776e-07,
        1.0
      ],
      "min": [
        -1.0,
        -1.6786535752544296e-06,
        -1.0
      ],
      "type": "VEC3"
    },
    {
      "bufferView": 1,
      "byteOffset": 26240,
      "componentType": 5126,
      "count": 126,
      "max": [
        0.9770280718803406,
        0.9932278990745544
      ],
      "min": [
        0.022285081446170807,
        0.8206753134727478
      ],
      "type": "VEC2"
    },
    {
      "bufferView": 1,
      "byteOffset": 27248,
      "componentType": 5126,
      "count": 126,
      "max": [
        0.9770280718803406,
        0.9932278990745544
      ],
      "min": [
        0.022285081446170807,
        0.8206753134727478
      ],
      "type": "VEC2"
    },
    {
      "bufferView": 1,
      "byteOffset": 28256,
      "componentType": 5126,
      "count": 126,
      "max": [
        0.9770280718803406,
        0.9932278990745544
      ],
      "min": [
        0.022285081446170807,
        0.8206753134727478
      ],
      "type": "VEC2"
    },
    {
      "bufferView": 0,
      "byteOffset": 20868,
      "componentType": 5125,
      "count": 360,
      "type": "SCALAR"
    }
  ],
  "asset": {
    "extras": {
      "author": "s3818430 (https://sketchfab.com/s3818430)",
      "license": "CC-BY-4.0 (http://creativecommons.org/licenses/by/4.0/)",
      "source": "https://sketchfab.com/3d-models/n-seoul-tower-0a77b5b1c9984cfcbdd7e8e886011cce",
      "title": "N Seoul Tower"
    },
    "generator": "Sketchfab-13.7.0",
    "version": "2.0"
  },
  "bufferViews": [
    {
      "buffer": 0,
      "byteLength": 22308,
      "name": "floatBufferViews",
      "target": 34963
    },
    {
      "buffer": 0,
      "byteLength": 29264,
      "byteOffset": 22308,
      "byteStride": 8,
      "name": "floatBufferViews",
      "target": 34962
    },
    {
      "buffer": 0,
      "byteLength": 42384,
      "byteOffset": 51572,
      "byteStride": 12,
      "name": "floatBufferViews",
      "target": 34962
    }
  ],
  "buffers": [
    {
      "byteLength": 93956,
      "uri": "scene.bin"
    }
  ],
  "materials": [
    {
      "doubleSided": true,
      "name": "main_uv",
      "pbrMetallicRoughness": {
        "metallicFactor": 0.0,
        "roughnessFactor": 0.6
      }
    },
    {
      "doubleSided": true,
      "name": "phong1",
      "pbrMetallicRoughness": {
        "metallicFactor": 0.0,
        "roughnessFactor": 0.8942628736559436
      }
    }
  ],
  "meshes": [
    {
      "name": "pCube5_main_uv_0",
      "primitives": [
        {
          "attributes": {
            "NORMAL": 1,
            "POSITION": 0,
            "TEXCOORD_0": 2,
            "TEXCOORD_1": 3
          },
          "indices": 4,
          "material": 0,
          "mode": 4
        }
      ]
    },
    {
      "name": "pCube5_phong1_0",
      "primitives": [
        {
          "attributes": {
            "NORMAL": 6,
            "POSITION": 5,
            "TEXCOORD_0": 7,
            "TEXCOORD_1": 8,
            "TEXCOORD_2": 9
          },
          "indices": 10,
          "material": 1,
          "mode": 4
        }
      ]
    }
  ],
  "nodes": [
    {
      "children": [
        1
      ],
      "matrix": [
        1.0,
        0.0,
        0.0,
        0.0,
        0.0,
        2.220446049250313e-16,
        -1.0,
        0.0,
        0.0,
        1.0,
        2.220446049250313e-16,
        0.0,
        0.0,
        0.0,
        0.0,
        1.0
      ],
      "name": "Sketchfab_model"
    },
    {
      "children": [
        2
      ],
      "matrix": [
        0.009999999776482582,
        0.0,
        0.0,
        0.0,
        0.0,
        0.0,
        0.009999999776482582,
        0.0,
        0.0,
        -0.009999999776482582,
        0.0,
        0.0,
        0.0,
        0.0,
        0.0,
        1.0
      ],
      "name": "ebe1b70cfe254de593ca75ac6852bbbc.fbx"
    },
    {
      "children": [
        3
      ],
      "name": "RootNode"
    },
    {
      "children": [
        4,
        5
      ],
      "name": "pCube5"
    },
    {
      "mesh": 0,
      "name": "pCube5_main_uv_0"
    },
    {
      "mesh": 1,
      "name": "pCube5_phong1_0"
    }
  ],
  "scene": 0,
  "scenes": [
    {
      "name": "Sketchfab_Scene",
      "nodes": [
        0
      ]
    }
  ]
}
