{
    "asset" : {
        "generator" : "Khronos glTF Blender I/O v1.7.33",
        "version" : "2.0"
    },
    "scene" : 0,
    "scenes" : [
        {
            "name" : "Scene",
            "nodes" : [
                3
            ]
        }
    ],
    "nodes" : [
        {
            "mesh" : 0,
            "name" : "node_id5.001"
        },
        {
            "children" : [
                0
            ],
            "name" : "node_id4.001",
            "rotation" : [
                0,
                0.00523596303537488,
                0,
                0.9999862909317017
            ],
            "scale" : [
                88.4571533203125,
                88.45714569091797,
                88.4571533203125
            ],
            "translation" : [
                -9.035316467285156,
                0,
                256
            ]
        },
        {
            "children" : [
                1
            ],
            "name" : "node_id13.001",
            "rotation" : [
                -0.231070414185524,
                0.746674120426178,
                0.2591085433959961,
                -0.5674037933349609
            ],
            "scale" : [
                0.0010000001639127731,
                0.0010000000474974513,
                0.0010000000474974513
            ],
            "translation" : [
                0.24757146835327148,
                -0.031927987933158875,
                0.31278863549232483
            ]
        },
        {
            "children" : [
                2
            ],
            "name" : "root.001"
        }
    ],
    "materials" : [
        {
            "doubleSided" : true,
            "name" : "Material.004",
            "pbrMetallicRoughness" : {
                "baseColorFactor" : [
                    0,
                    0.07602081447839737,
                    0.8000000715255737,
                    1
                ],
                "metallicFactor" : 0,
                "roughnessFactor" : 0.5
            }
        }
    ],
    "meshes" : [
        {
            "name" : "mesh_id6.001",
            "primitives" : [
                {
                    "attributes" : {
                        "POSITION" : 0,
                        "NORMAL" : 1,
                        "TEXCOORD_0" : 2,
                        "COLOR_0" : 3
                    },
                    "indices" : 4,
                    "material" : 0
                }
            ]
        }
    ],
    "accessors" : [
        {
            "bufferView" : 0,
            "componentType" : 5126,
            "count" : 8998,
            "max" : [
                1.0000008344650269,
                1,
                1.0000014305114746
            ],
            "min" : [
                -0.9999999403953552,
                -1,
                -1
            ],
            "type" : "VEC3"
        },
        {
            "bufferView" : 1,
            "componentType" : 5126,
            "count" : 8998,
            "type" : "VEC3"
        },
        {
            "bufferView" : 2,
            "componentType" : 5126,
            "count" : 8998,
            "type" : "VEC2"
        },
        {
            "bufferView" : 3,
            "componentType" : 5123,
            "count" : 8998,
            "normalized" : true,
            "type" : "VEC4"
        },
        {
            "bufferView" : 4,
            "componentType" : 5123,
            "count" : 52992,
            "type" : "SCALAR"
        }
    ],
    "bufferViews" : [
        {
            "buffer" : 0,
            "byteLength" : 107976,
            "byteOffset" : 0
        },
        {
            "buffer" : 0,
            "byteLength" : 107976,
            "byteOffset" : 107976
        },
        {
            "buffer" : 0,
            "byteLength" : 71984,
            "byteOffset" : 215952
        },
        {
            "buffer" : 0,
            "byteLength" : 71984,
            "byteOffset" : 287936
        },
        {
            "buffer" : 0,
            "byteLength" : 105984,
            "byteOffset" : 359920
        }
    ],
    "buffers" : [
        {
            "byteLength" : 465904,
            "uri" : "data:application/octet-stream;base64,"
        }
    ]
}
