{
    "asset" : {
        "generator" : "Khronos glTF Blender I/O v1.7.33",
        "version" : "2.0"
    },
    "scene" : 0,
    "scenes" : [
        {
            "name" : "Scene",
            "nodes" : [
                0,
                1,
                2
            ]
        }
    ],
    "nodes" : [
        {
            "mesh" : 0,
            "name" : "Sphere",
            "translation" : [
                1.8745872974395752,
                1.2280298471450806,
                -1.21073317527771
            ]
        },
        {
            "mesh" : 1,
            "name" : "Sphere.001",
            "scale" : [
                0.3860386908054352,
                0.3860386908054352,
                0.3860386908054352
            ],
            "translation" : [
                0.5618112683296204,
                2.6699581146240234,
                -0.8024060130119324
            ]
        },
        {
            "mesh" : 2,
            "name" : "Sphere.002",
            "scale" : [
                0.26118743419647217,
                0.26118743419647217,
                0.26118743419647217
            ],
            "translation" : [
                0.661020815372467,
                2.2231318950653076,
                -1.6592718362808228
            ]
        }
    ],
    "materials" : [
        {
            "doubleSided" : true,
            "name" : "Material.001",
            "pbrMetallicRoughness" : {
                "baseColorFactor" : [
                    0,
                    0.3059709668159485,
                    0.8000000715255737,
                    1
                ],
                "metallicFactor" : 0,
                "roughnessFactor" : 0.30000001192092896
            }
        }
    ],
    "meshes" : [
        {
            "name" : "Sphere.004",
            "primitives" : [
                {
                    "attributes" : {
                        "POSITION" : 0,
                        "NORMAL" : 1,
                        "TEXCOORD_0" : 2
                    },
                    "indices" : 3,
                    "material" : 0
                }
            ]
        },
        {
            "name" : "Sphere.005",
            "primitives" : [
                {
                    "attributes" : {
                        "POSITION" : 4,
                        "NORMAL" : 5,
                        "TEXCOORD_0" : 6
                    },
                    "indices" : 3,
                    "material" : 0
                }
            ]
        },
        {
            "name" : "Sphere.006",
            "primitives" : [
                {
                    "attributes" : {
                        "POSITION" : 7,
                        "NORMAL" : 8,
                        "TEXCOORD_0" : 9
                    },
                    "indices" : 3,
                    "material" : 0
                }
            ]
        }
    ],
    "accessors" : [
        {
            "bufferView" : 0,
            "componentType" : 5126,
            "count" : 20299,
            "max" : [
                1.0753554105758667,
                1.2214425802230835,
                1.0288596153259277
            ],
            "min" : [
                -1.0285544395446777,
                -1.1490079164505005,
                -1.0696114301681519
            ],
            "type" : "VEC3"
        },
        {
            "bufferView" : 1,
            "componentType" : 5126,
            "count" : 20299,
            "type" : "VEC3"
        },
        {
            "bufferView" : 2,
            "componentType" : 5126,
            "count" : 20299,
            "type" : "VEC2"
        },
        {
            "bufferView" : 3,
            "componentType" : 5123,
            "count" : 118800,
            "type" : "SCALAR"
        },
        {
            "bufferView" : 4,
            "componentType" : 5126,
            "count" : 20299,
            "max" : [
                0.9993734955787659,
                1.1560389995574951,
                0.8877821564674377
            ],
            "min" : [
                -1.0459340810775757,
                -1.0906224250793457,
                -1.1437151432037354
            ],
            "type" : "VEC3"
        },
        {
            "bufferView" : 5,
            "componentType" : 5126,
            "count" : 20299,
            "type" : "VEC3"
        },
        {
            "bufferView" : 6,
            "componentType" : 5126,
            "count" : 20299,
            "type" : "VEC2"
        },
        {
            "bufferView" : 7,
            "componentType" : 5126,
            "count" : 20299,
            "max" : [
                1.0493007898330688,
                1.2128287553787231,
                0.9761294722557068
            ],
            "min" : [
                -1.0466492176055908,
                -0.9458677172660828,
                -1.0135465860366821
            ],
            "type" : "VEC3"
        },
        {
            "bufferView" : 8,
            "componentType" : 5126,
            "count" : 20299,
            "type" : "VEC3"
        },
        {
            "bufferView" : 9,
            "componentType" : 5126,
            "count" : 20299,
            "type" : "VEC2"
        }
    ],
    "bufferViews" : [
        {
            "buffer" : 0,
            "byteLength" : 243588,
            "byteOffset" : 0
        },
        {
            "buffer" : 0,
            "byteLength" : 243588,
            "byteOffset" : 243588
        },
        {
            "buffer" : 0,
            "byteLength" : 162392,
            "byteOffset" : 487176
        },
        {
            "buffer" : 0,
            "byteLength" : 237600,
            "byteOffset" : 649568
        },
        {
            "buffer" : 0,
            "byteLength" : 243588,
            "byteOffset" : 887168
        },
        {
            "buffer" : 0,
            "byteLength" : 243588,
            "byteOffset" : 1130756
        },
        {
            "buffer" : 0,
            "byteLength" : 162392,
            "byteOffset" : 1374344
        },
        {
            "buffer" : 0,
            "byteLength" : 243588,
            "byteOffset" : 1536736
        },
        {
            "buffer" : 0,
            "byteLength" : 243588,
            "byteOffset" : 1780324
        },
        {
            "buffer" : 0,
            "byteLength" : 162392,
            "byteOffset" : 2023912
        }
    ],
    "buffers" : [
        {
            "byteLength" : 2186304,
            "uri" : "data:application/octet-stream;base64,"
        }
    ]
}
